<?xml version="1.0" standalone="no"?>
<!DOCTYPE svg PUBLIC "-//W3C//DTD SVG 1.1//EN" "http://www.w3.org/Graphics/SVG/1.1/DTD/svg11.dtd">
<svg xmlns="http://www.w3.org/2000/svg" id="Layer_1" data-name="Layer 1" viewBox="0 0 138.05 119.82" width="138.0500030517578" height="119.81999969482422"><defs><style>.cls-1{fill:#231f20;}</style></defs><path class="cls-1" d="M72.16,73.16C75.73,69.59,82,64.68,82,45.94V35.18A28,28,0,0,0,48.6,7.58c-23.22,4.64-45.15,16-45.15,43.27C2.78,90,48.66,95.48,72.16,73.16Z"/><path class="cls-1" d="M99,79.11c-3.43,4.68-3.3,12.75-1.57,18.08,3.87,11.88,13,18.27,24.45,14.53,6-2,10.07-5.83,11.79-10.77a19.74,19.74,0,0,0-.19-12.69,18.66,18.66,0,0,0-11.53-11.94c-4.33-1.69-9.5-4.41-14.07-3.08A16.54,16.54,0,0,0,99,79.11Z"/></svg>